# xmcd CD database file
#
# Track frame offsets:
#	150
#	18780
#	41300
#	55425
#	74055
#
# Disc length: 1285 seconds
#
# Revision: 0
# Processed by: cddbd v1.5.1PL0 Copyright (c) Steve Scherf et al.
# Submitted via: CDex 1.51
#
DISCID=3e050305
DTITLE=安良城　紅 - Here alone
DYEAR=1900
DGENRE=JPop
TTITLE0=Here alone
TTITLE1=Song for love
TTITLE2=I saw Mommy kissing Santa Claus
TTITLE3=Here alone(Instrumental)
TTITLE4=Song for love(Instrumental)
EXTD=
EXTT0=
EXTT1=
EXTT2=
EXTT3=
EXTT4=
PLAYORDER=
